<?xml version="1.0" encoding="utf-8"?>
<!-- Generator: Adobe Illustrator 26.0.2, SVG Export Plug-In . SVG Version: 6.00 Build 0)  -->
<svg version="1.1" id="Шар_1" xmlns="http://www.w3.org/2000/svg" xmlns:xlink="http://www.w3.org/1999/xlink" x="0px" y="0px"
	 viewBox="0 0 1254.7 390.1" style="enable-background:new 0 0 1254.7 390.1;" xml:space="preserve">
<style type="text/css">
	.st0{fill:#E9E9E9;}
	.st1{fill:none;stroke:#CED591;stroke-width:16;stroke-linecap:round;stroke-linejoin:round;stroke-miterlimit:10;}
	.st2{fill:none;stroke:#90BFD7;stroke-width:16;stroke-linecap:round;stroke-linejoin:round;stroke-miterlimit:10;}
	.st3{fill:none;stroke:#AEA9A6;stroke-width:7;stroke-linecap:round;stroke-linejoin:round;stroke-miterlimit:10;}
	.st4{opacity:0.52;fill:#828282;}
	.st5{fill:none;stroke:#90BFD7;stroke-width:33;stroke-linecap:round;stroke-linejoin:round;stroke-miterlimit:10;}
	.st6{fill:none;stroke:#CED591;stroke-width:33;stroke-linecap:round;stroke-linejoin:round;stroke-miterlimit:10;}
	.st7{fill:none;stroke:#CED591;stroke-width:9;stroke-linecap:round;stroke-linejoin:round;stroke-miterlimit:10;}
	.st8{fill:#FFFFFF;}
</style>
<path class="st0" d="M238.3,390.1c397.3-199.3,226.3-504.3,0-346.3C12.2-114.1-159.6,190.5,238.3,390.1z"/>
<g>
	<path class="st1" d="M111.1,68.1c0,0-3,91.4-53.2,157"/>
	<line class="st1" x1="50.5" y1="109.5" x2="201.2" y2="109.5"/>
	<path class="st1" d="M91.9,232.3c17.2-9.6,40.9-25.7,62-51.5c9.3-11.4,16.4-22.6,21.7-32.6H96.3c5.2,12.2,15.2,31.4,34,49.9
		c22,21.8,45.6,32.2,59.1,37.1"/>
</g>
<g>
	<path class="st2" d="M275.9,91.4c0,0,16.5,2.9,19.9,16.9"/>
	<polyline class="st2" points="365.8,68.1 365.8,86.3 365.8,116 	"/>
	<polyline class="st2" points="397.4,84.3 373.4,84.3 334.1,84.3 	"/>
	<polyline class="st2" points="418.1,117.9 378.4,117.9 313.5,117.9 	"/>
	<polyline class="st2" points="415.5,143.7 377.7,143.7 316,143.7 	"/>
	<polyline class="st2" points="415.5,200.6 377.7,200.6 316,200.6 	"/>
	<polyline class="st2" points="410.3,172.2 376.5,172.2 321.2,172.2 	"/>
	<line class="st2" x1="365.8" y1="144.4" x2="365.8" y2="218.9"/>
	<line class="st2" x1="335.3" y1="119.8" x2="353.1" y2="143.7"/>
	<line class="st2" x1="394.8" y1="119.8" x2="379.3" y2="143.1"/>
	<polyline class="st2" points="269.4,147 294.1,147 294.1,214.6 272,234.9 	"/>
	<path class="st2" d="M292.4,216.2c0,0,6.9,20.5,28.8,21.5c21.9,1,99.5,0,99.5,0"/>
</g>
<path class="st3" d="M223.2,235.1c11.9,7.4,13.4,9.9,13.4,9.9"/>
<path class="st3" d="M250,235.1c-2.7,1.7-4.9,3.1-6.6,4.3c-5.9,4.1-6.8,5.6-6.8,5.6"/>
<path class="st4" d="M197.1,186.6c-20.4-47.7-58.5-75.3-94.7-69.8c-24.2,3.7-40.8,21.1-48.2,30.1c4.8,27.2,15.8,41.3,21.4,47.3
	C103,223.6,152.9,222.2,197.1,186.6z"/>
<path class="st4" d="M295.8,189.6c17.9-47.7,51.4-75.3,83.1-69.8c21.2,3.7,35.8,21.1,42.3,30.1c-4.2,27.2-13.8,41.3-18.8,47.3
	C378.4,226.6,334.6,225.2,295.8,189.6z"/>
<path class="st3" d="M236.1,244.6c-1.1,17.3-7.2,28.9-14.3,29.5c-1.4,0.1-5.3,0-10.6-5.9"/>
<path class="st3" d="M236.2,245.6c1.1,16.7,7.2,27.9,14.3,28.5c1.4,0.1,5.3,0,10.6-5.6"/>
<line class="st5" x1="548.9" y1="338" x2="548.9" y2="54.2"/>
<line class="st5" x1="489.2" y1="54.1" x2="608.5" y2="54.1"/>
<path class="st5" d="M670.6,54.2c30.7,1.7,51.7,73.3,53.4,132.5c1.9,69.4-22,149.8-53.4,151.4c-32,1.6-58.8-79.3-56.7-151.4
	C615.6,124.4,639.3,52.5,670.6,54.2z"/>
<path class="st5" d="M975.3,54.5c19.4,0.6,32.8,26.1,33.8,47.2c1.2,24.8-14,53.4-33.8,54c-20.3,0.6-37.2-28.3-35.9-54
	C940.5,79.6,955.5,53.9,975.3,54.5z"/>
<path class="st5" d="M1091,56.1c16.4,5.2,32.5,22.3,33.8,45.6c1.5,25.8-15.9,46.3-33.8,52.1c-10.1,3.3-19.1,1.6-24.3,0
	c0-32.6,0-65.2,0-97.8C1071.6,54.7,1080.7,52.8,1091,56.1z"/>
<polyline class="st5" points="774.4,338 777.5,54.2 832.2,196.1 890,54.2 893.3,338 "/>
<polyline class="st6" points="945.8,338.7 956.6,305.4 979.1,235.5 1002.8,303.8 1015,338.7 "/>
<line class="st7" x1="957.3" y1="309.9" x2="1003.2" y2="310.5"/>
<path class="st6" d="M1125.1,322.4c-2.8,3.4-15,17.7-29.5,15.4c-19.7-3.2-28.9-34.9-28.6-55.6c0.1-5.7,0.2-21.5,10.5-34
	c2.4-2.9,11-13.3,24.4-13c13.6,0.4,22,11.6,23.3,13.4"/>
<line class="st5" x1="1177.9" y1="53.1" x2="1177.9" y2="338.1"/>
<line class="st5" x1="1238.2" y1="236.6" x2="1238.2" y2="338.1"/>
<line class="st5" x1="1237.8" y1="53.6" x2="1238.2" y2="156.1"/>
<line class="st5" x1="1177.9" y1="235.1" x2="1238.2" y2="235.4"/>
<path class="st8" d="M74.7,144"/>
<path class="st8" d="M62.7,132.1"/>
</svg>
